<svg width="24" height="24" viewBox="0 0 24 24" fill="none" xmlns="http://www.w3.org/2000/svg">
<path d="M23.9998 12C23.9998 5.37234 18.6273 0 12.0007 0C5.37201 0 0 5.37218 0 12C0 18.6268 5.37217 24 12.0007 24C18.6275 24 23.9998 18.6268 23.9998 12Z" fill="#3D83D9"/>
<path d="M9.06494 9.07031H6.28711V17.0091H9.06494V9.07031Z" fill="white"/>
<path d="M7.67612 5.10156C6.80599 5.10156 6.12486 5.90117 6.32104 6.80188C6.43501 7.32509 6.8618 7.7457 7.38685 7.85115C8.28222 8.03096 9.06495 7.35317 9.06495 6.49056C9.06495 5.7247 8.44431 5.10156 7.67612 5.10156Z" fill="white"/>
<path d="M18.1947 11.5091C18.0079 10.0128 17.2594 9.07031 15.2368 9.07031C13.8012 9.07031 13.2303 9.29424 12.9011 9.92089V9.07031H10.6523V17.0091H12.9666V12.8535C12.9666 11.8161 13.1631 11.0325 14.4459 11.0325C15.7102 11.0325 15.8118 11.9969 15.8118 12.9208V17.0093H18.1949C18.1947 17.0093 18.2389 11.8588 18.1947 11.5091Z" fill="white"/>
</svg>
