<svg width="24" height="24" viewBox="0 0 24 24" fill="none" xmlns="http://www.w3.org/2000/svg">
<path d="M12.0008 0C5.37471 0 0.00195312 5.37276 0.00195312 12.0013C0.00195312 18.6276 5.37471 24 12.0008 24C18.6272 24 23.9998 18.6276 23.9998 12.0013C23.9998 5.37276 18.6272 0 12.0008 0Z" fill="url(#paint0_linear_1820_6791)"/>
<path d="M12.0018 16.2841C14.3646 16.2841 16.2869 14.3628 16.2869 12.0008C16.2869 9.63754 14.3646 7.71484 12.0018 7.71484C9.639 7.71484 7.7168 9.63754 7.7168 12.0008C7.7168 14.3626 9.63917 16.2841 12.0018 16.2841ZM8.75617 12.0008C8.75617 10.2098 10.2121 8.75271 12.0018 8.75271C13.7915 8.75271 15.2476 10.2098 15.2476 12.0008C15.2476 13.7905 13.7915 15.2466 12.0018 15.2466C10.2121 15.2466 8.75617 13.7905 8.75617 12.0008Z" fill="white"/>
<path d="M16.2746 19.1178H7.72753C6.12342 19.1178 4.81836 17.8127 4.81836 16.2086V7.79198C4.81836 6.18786 6.12342 4.88281 7.72753 4.88281H16.2746C17.8788 4.88281 19.1838 6.18786 19.1838 7.79198V16.2086C19.1838 17.8127 17.8788 19.1178 16.2746 19.1178ZM7.72753 5.94421C6.70885 5.94421 5.87976 6.77314 5.87976 7.79198V16.2086C5.87976 17.2273 6.70869 18.0564 7.72753 18.0564H16.2746C17.2933 18.0564 18.1224 17.2274 18.1224 16.2086V7.79198C18.1224 6.77314 17.2935 5.94421 16.2746 5.94421H7.72753Z" fill="white"/>
<path d="M16.3444 7.22656C15.9697 7.22656 15.668 7.53163 15.668 7.90379C15.668 8.27829 15.9697 8.57935 16.3444 8.57935C16.7164 8.57935 17.0214 8.27829 17.0214 7.90379C17.0214 7.53163 16.7164 7.22656 16.3444 7.22656Z" fill="white"/>
<defs>
<linearGradient id="paint0_linear_1820_6791" x1="19.8733" y1="21.0565" x2="4.12848" y2="2.94412" gradientUnits="userSpaceOnUse">
<stop stop-color="#5D3FD2"/>
<stop offset="0.4244" stop-color="#B829A9"/>
<stop offset="0.5009" stop-color="#BE289D"/>
<stop offset="0.6383" stop-color="#D0257E"/>
<stop offset="0.7849" stop-color="#E62256"/>
<stop offset="0.8147" stop-color="#E83156"/>
<stop offset="0.8718" stop-color="#EE5755"/>
<stop offset="0.9495" stop-color="#F89554"/>
<stop offset="1" stop-color="#FFC153"/>
</linearGradient>
</defs>
</svg>
