<svg width="25" height="24" viewBox="0 0 25 24" fill="none" xmlns="http://www.w3.org/2000/svg">
<path d="M24.0021 11.9992C24.0021 5.37225 18.6299 0 12.002 0C5.37437 0 0.00195312 5.37225 0.00195312 11.9992C0.00195312 18.6262 5.37437 24 12.002 24C18.63 24 24.0021 18.6262 24.0021 11.9992Z" fill="#395196"/>
<path d="M13.0595 9.15801V8.02133C13.0595 7.46769 13.429 7.33835 13.6876 7.33835C13.9472 7.33835 15.283 7.33835 15.283 7.33835V4.90422L13.0866 4.89453C10.6486 4.89453 10.095 6.71102 10.095 7.87394V9.15801H8.68555V12.0014H10.1072C10.1072 15.2233 10.1072 19.1082 10.1072 19.1082H12.9497C12.9497 19.1082 12.9497 15.1837 12.9497 12.0014H15.0595L15.319 9.15801H13.0595V9.15801Z" fill="white"/>
</svg>
