<svg width="25" height="24" viewBox="0 0 25 24" fill="none" xmlns="http://www.w3.org/2000/svg">
<rect x="0.00195312" width="24" height="24" rx="12" fill="white"/>
<mask id="mask0_1820_6779" style="mask-type:alpha" maskUnits="userSpaceOnUse" x="4" y="4" width="17" height="16">
<path d="M12.002 20C16.4202 20 20.002 16.4183 20.002 12C20.002 11.4116 19.9384 10.838 19.8179 10.2857H12.002V13.6H16.4074C15.7535 15.4 14.0279 16.6857 12.002 16.6857C9.4141 16.6857 7.31624 14.5878 7.31624 12C7.31624 9.41215 9.4141 7.31429 12.002 7.31429C13.321 7.31429 14.5128 7.85935 15.3644 8.73654L17.6965 6.38108C16.2459 4.91109 14.2303 4 12.002 4C7.58368 4 4.00195 7.58172 4.00195 12C4.00195 16.4183 7.58368 20 12.002 20Z" fill="#C4C4C4"/>
</mask>
<g mask="url(#mask0_1820_6779)">
<path d="M-1.14062 12.0312L4.00223 7.65927L9.71652 12.1164L4.00223 16.345L-1.14062 12.0312Z" fill="#FEBD01"/>
<path d="M4.00195 7.66016L10.4591 1.20301L17.4305 3.7173L20.4591 9.08873L11.8305 9.43158L9.71624 12.1173L4.00195 7.66016Z" fill="#FF4131"/>
<path d="M11.6602 9.94342L20.9173 9.71484L20.803 13.8291L18.5173 18.7434L13.8316 15.0863L11.6602 14.0577V9.94342Z" fill="#0286F7"/>
<path d="M4.00195 16.3458L9.71624 12.1172L10.3448 14.9743L13.8305 15.0886L18.5162 18.7458L13.7734 20.8029L7.88767 20.46L4.00195 16.3458Z" fill="#01A94D"/>
</g>
</svg>
